<?xml version="1.0" standalone="no"?>
<!DOCTYPE svg PUBLIC "-//W3C//DTD SVG 20010904//EN"
 "http://www.w3.org/TR/2001/REC-SVG-20010904/DTD/svg10.dtd">
<svg version="1.0" xmlns="http://www.w3.org/2000/svg"
 width="300.000000pt" height="170.000000pt" viewBox="0 0 300.000000 170.000000"
 preserveAspectRatio="xMidYMid meet">
<metadata>
Created by potrace 1.10, written by Peter Selinger 2001-2011
</metadata>
<g transform="translate(0.000000,170.000000) scale(0.100000,-0.100000)"
fill="#000000" stroke="none">
<path d="M1457 1333 c-4 -3 -7 -138 -7 -299 0 -258 2 -293 16 -298 9 -3 20 -4
25 0 5 3 9 136 9 305 0 283 -1 299 -18 299 -10 0 -22 -3 -25 -7z"/>
<path d="M1595 1281 c-11 -5 -29 -19 -40 -31 -19 -21 -20 -38 -23 -265 -3
-217 -1 -243 13 -249 9 -3 21 -4 26 0 5 3 9 103 9 224 0 146 4 228 12 245 15
33 51 42 83 21 20 -13 25 -25 25 -56 0 -36 2 -38 27 -36 15 2 29 8 31 14 7 21
-18 89 -42 111 -26 25 -89 36 -121 22z"/>
<path d="M1347 1262 c-24 -26 -21 -49 7 -67 34 -23 66 -5 66 35 0 45 -44 64
-73 32z"/>
<path d="M1200 1240 c-20 -12 -4 -73 28 -103 36 -35 72 -47 138 -47 54 0 55 0
52 28 -3 25 -6 27 -58 30 -70 3 -97 17 -112 58 -13 36 -28 47 -48 34z"/>
<path d="M1694 1096 c-3 -8 -4 -25 -2 -38 2 -18 9 -23 32 -23 36 0 56 27 40
53 -14 22 -62 28 -70 8z"/>
<path d="M1339 1039 c-16 -30 3 -69 34 -69 29 0 47 17 47 45 0 45 -60 63 -81
24z"/>
<path d="M1204 1036 c-10 -25 0 -51 20 -54 27 -6 48 25 35 49 -12 22 -47 25
-55 5z"/>
<path d="M1700 971 c0 -24 -36 -51 -67 -51 -18 0 -23 -6 -23 -25 0 -22 4 -25
34 -25 38 0 80 29 101 70 21 41 19 50 -15 50 -23 0 -30 -5 -30 -19z"/>
<path d="M1248 973 c-22 -5 -22 -21 -3 -47 29 -38 68 -56 123 -56 49 0 52 1
52 25 0 23 -4 25 -46 25 -37 0 -51 5 -76 30 -16 17 -30 29 -31 29 -1 -1 -10
-3 -19 -6z"/>
<path d="M1181 906 c-10 -11 -7 -25 13 -64 36 -71 75 -96 159 -100 l69 -4 -4
27 c-3 26 -6 27 -61 28 -52 2 -62 6 -85 33 -15 17 -35 45 -44 62 -19 35 -30
39 -47 18z"/>
<path d="M1762 878 c-27 -60 -54 -82 -105 -83 -38 -1 -42 -4 -45 -28 -3 -26
-1 -27 38 -27 23 0 58 8 77 17 67 31 120 152 71 161 -11 2 -23 -10 -36 -40z"/>
<path d="M1609 644 c-9 -11 -10 -20 -2 -32 15 -24 44 -27 59 -7 28 38 -27 75
-57 39z"/>
<path d="M965 638 c-3 -7 -6 -58 -7 -113 l-3 -100 -28 3 c-32 3 -46 -20 -27
-43 28 -34 92 -13 109 36 12 34 15 186 5 213 -7 19 -43 21 -49 4z"/>
<path d="M1121 632 c-125 -67 -73 -262 70 -262 85 0 141 56 141 139 0 111
-112 176 -211 123z m110 -47 c55 -29 62 -106 12 -145 -85 -67 -188 60 -107
131 18 16 40 27 57 28 4 1 21 -6 38 -14z"/>
<path d="M1374 637 c-2 -7 -3 -69 -2 -138 l3 -124 65 -3 c38 -1 75 3 90 11 49
25 62 94 25 130 -9 10 -12 26 -8 50 4 29 1 40 -20 61 -22 22 -35 26 -87 26
-41 0 -62 -4 -66 -13z m115 -51 c19 -23 2 -46 -35 -46 -31 0 -34 3 -34 30 0
26 3 30 29 30 16 0 34 -6 40 -14z m26 -126 c0 -23 -4 -25 -47 -28 -48 -3 -48
-3 -48 28 0 31 0 31 48 28 43 -3 47 -5 47 -28z"/>
<path d="M1724 639 c-6 -10 -7 -113 -4 -262 0 -5 10 -7 23 -5 19 3 22 10 25
55 l3 52 42 3 c37 3 42 6 42 28 0 23 -4 25 -42 24 -42 -1 -43 0 -43 30 l0 31
57 0 c55 0 58 1 58 25 0 24 -2 25 -77 28 -52 2 -79 -1 -84 -9z"/>
<path d="M1917 643 c-13 -12 -7 -33 26 -85 25 -41 33 -68 37 -118 5 -61 6 -65
30 -65 24 0 25 4 28 59 2 37 10 69 21 85 10 14 28 45 39 68 19 36 19 43 7 53
-22 19 -42 6 -68 -45 l-23 -46 -32 50 c-29 47 -49 61 -65 44z"/>
<path d="M1615 547 c-3 -7 -5 -49 -3 -93 3 -77 4 -79 28 -79 25 0 25 1 25 90
0 86 -1 90 -23 93 -12 2 -24 -3 -27 -11z"/>
</g>
</svg>
